<svg width="32" height="32" viewBox="0 0 32 32" fill="none" xmlns="http://www.w3.org/2000/svg">
<path d="M19.9768 6.61313C19.3099 6.14876 18.4568 6.04063 17.6949 6.32376L8.01119 9.92063C7.87932 9.96938 7.76744 10.0488 7.68057 10.1469H3.81307C2.44432 10.1469 1.33057 11.2606 1.33057 12.6294V15.4606C1.33057 16.5525 2.03932 17.4813 3.02057 17.8125V22.7775C3.02057 24.4606 4.38994 25.8306 6.07369 25.8306C7.75744 25.8306 9.12682 24.4613 9.12682 22.7775V18.6594L17.5981 22.1963C17.9062 22.325 18.2318 22.3888 18.5556 22.3888C19.0374 22.3888 19.5162 22.2481 19.9306 21.9719C20.6231 21.5106 21.0368 20.7388 21.0374 19.9069L21.0424 8.65126C21.0418 7.84001 20.6437 7.07751 19.9768 6.61313ZM2.98557 12.63C2.98557 12.1738 3.35682 11.8025 3.81307 11.8025H7.47182V16.2888H3.81307C3.35682 16.2888 2.98557 15.9175 2.98557 15.4613V12.63ZM7.47182 22.7781C7.47182 23.5488 6.84494 24.1763 6.07369 24.1763C5.30244 24.1763 4.67557 23.5494 4.67557 22.7781V18.0563H7.47119V22.7781H7.47182ZM19.3818 19.9069C19.3818 20.1881 19.2474 20.4394 19.0131 20.595C18.7787 20.7513 18.4956 20.7781 18.2356 20.67L9.12682 16.8663V11.2719L18.2712 7.87501C18.5287 7.77938 18.8062 7.81438 19.0318 7.97126C19.2574 8.12813 19.3868 8.37626 19.3868 8.65063L19.3818 19.9069Z" fill="#B0B0B0" stroke="#B0B0B0" stroke-width="0.3"/>
<path d="M23.8643 9.94752C23.913 9.94752 23.963 9.93814 24.0124 9.91939L28.5237 8.16939C28.8287 8.05127 29.0093 7.59752 28.928 7.15564C28.8462 6.71439 28.5324 6.45252 28.228 6.57064L23.7168 8.32064C23.4118 8.43877 23.2312 8.89252 23.3124 9.33439C23.3812 9.70314 23.6124 9.94752 23.8643 9.94752Z" fill="#B0B0B0" stroke="#B0B0B0" stroke-width="0.3"/>
<path d="M28.5236 20.3894L24.0124 18.6394C23.708 18.5212 23.3943 18.7831 23.3124 19.2244C23.2305 19.6656 23.4118 20.1194 23.7168 20.2381L28.228 21.9881C28.2774 22.0075 28.3274 22.0162 28.3761 22.0162C28.6286 22.0162 28.8593 21.7725 28.928 21.4025C29.0099 20.9619 28.8286 20.5081 28.5236 20.3894Z" fill="#B0B0B0" stroke="#B0B0B0" stroke-width="0.3"/>
<path d="M30.0975 13.4519H23.865C23.5493 13.4519 23.2931 13.8225 23.2931 14.2794C23.2931 14.7363 23.5487 15.1069 23.865 15.1069H30.0975C30.4131 15.1069 30.6693 14.7363 30.6693 14.2794C30.6693 13.8225 30.4131 13.4519 30.0975 13.4519Z" fill="#B0B0B0" stroke="#B0B0B0" stroke-width="0.3"/>
</svg>
