<svg width="32" height="32" viewBox="0 0 32 32" fill="none" xmlns="http://www.w3.org/2000/svg">
<path fill-rule="evenodd" clip-rule="evenodd" d="M11.0973 9.84955C11.7343 9.7096 12.484 9.66663 13.333 9.66663H18.6663C19.5153 9.66663 20.265 9.7096 20.9021 9.84955C21.5503 9.99196 22.1441 10.2481 22.6145 10.7185C23.0849 11.1889 23.341 11.7826 23.4834 12.4309C23.6234 13.0679 23.6663 13.8176 23.6663 14.6667V29.3333C23.6663 29.8856 23.2186 30.3333 22.6663 30.3333H9.33301C8.78073 30.3333 8.33301 29.8856 8.33301 29.3333V14.6667C8.33301 13.8176 8.37598 13.0679 8.51593 12.4309C8.65835 11.7826 8.9145 11.1889 9.3849 10.7185C9.8553 10.2481 10.449 9.99196 11.0973 9.84955ZM10.4693 12.8601C10.3764 13.2833 10.333 13.8609 10.333 14.6667V28.3333H21.6663V14.6667C21.6663 13.8609 21.623 13.2833 21.5299 12.8601C21.4395 12.4481 21.3162 12.2487 21.2002 12.1327C21.0843 12.0168 20.8849 11.8935 20.4729 11.803C20.0497 11.71 19.4721 11.6666 18.6663 11.6666H13.333C12.5273 11.6666 11.9497 11.71 11.5264 11.803C11.1145 11.8935 10.915 12.0168 10.7991 12.1327C10.6832 12.2487 10.5598 12.4481 10.4693 12.8601Z" fill="white"/>
<path fill-rule="evenodd" clip-rule="evenodd" d="M13.6665 16C13.6665 15.4477 14.1142 15 14.6665 15H17.3332C17.8854 15 18.3332 15.4477 18.3332 16C18.3332 16.5523 17.8854 17 17.3332 17H14.6665C14.1142 17 13.6665 16.5523 13.6665 16ZM13.6665 20C13.6665 19.4477 14.1142 19 14.6665 19H17.3332C17.8854 19 18.3332 19.4477 18.3332 20C18.3332 20.5523 17.8854 21 17.3332 21H14.6665C14.1142 21 13.6665 20.5523 13.6665 20ZM13.6665 24C13.6665 23.4477 14.1142 23 14.6665 23H17.3332C17.8854 23 18.3332 23.4477 18.3332 24C18.3332 24.5523 17.8854 25 17.3332 25H14.6665C14.1142 25 13.6665 24.5523 13.6665 24Z" fill="white"/>
<path fill-rule="evenodd" clip-rule="evenodd" d="M18.5314 1.72606C18.9078 1.8122 19.3103 1.98865 19.7174 2.19646L25.5503 5.1747C26.2299 5.5217 26.8074 5.81649 27.2598 6.1105C27.7423 6.42398 28.1529 6.77925 28.4569 7.28171C28.7602 7.78293 28.8865 8.31301 28.9447 8.8887C28.9997 9.43106 28.9997 10.0881 28.9997 10.8656V29.3333C28.9997 29.8856 28.5519 30.3333 27.9997 30.3333C27.4474 30.3333 26.9997 29.8856 26.9997 29.3333V10.9141C26.9997 10.0752 26.9985 9.51993 26.955 9.09017C26.9137 8.68248 26.8409 8.4741 26.7459 8.31726C26.6517 8.16167 26.5045 8.00481 26.1702 7.78757C25.8157 7.5572 25.3323 7.30905 24.5967 6.93343L18.8079 3.97772C18.6217 3.88264 18.4718 3.81393 18.3525 3.76541C18.3403 3.9025 18.333 4.07924 18.333 4.30492V10.2713C18.333 10.8236 17.8853 11.2713 17.333 11.2713C16.7807 11.2713 16.333 10.8236 16.333 10.2713V4.30492C16.333 3.85246 16.3563 3.41801 16.4431 3.04648C16.5277 2.68445 16.7122 2.21069 17.1742 1.91169C17.6447 1.60717 18.1582 1.6407 18.5314 1.72606ZM18.0345 3.66636C18.0315 3.66626 18.0299 3.66604 18.0299 3.66604L18.0345 3.66636Z" fill="white"/>
<path fill-rule="evenodd" clip-rule="evenodd" d="M5.01109 17.0111C5.00448 17.088 5 17.1923 5 17.3333V29.3333C5 29.8856 4.55228 30.3333 4 30.3333C3.44772 30.3333 3 29.8856 3 29.3333V17.3333C3 17.0359 3.0142 16.7287 3.07649 16.4451C3.14128 16.1501 3.27093 15.8208 3.54589 15.5459C3.82085 15.2709 4.15015 15.1412 4.44507 15.0764C4.72864 15.0141 5.03592 15 5.33333 15H9.33333C9.88561 15 10.3333 15.4477 10.3333 16C10.3333 16.5523 9.88561 17 9.33333 17H5.33333C5.19237 17 5.08801 17.0044 5.01109 17.0111Z" fill="white"/>
<path fill-rule="evenodd" clip-rule="evenodd" d="M1.6665 29.3333C1.6665 28.781 2.11422 28.3333 2.6665 28.3333H29.3332C29.8854 28.3333 30.3332 28.781 30.3332 29.3333C30.3332 29.8856 29.8854 30.3333 29.3332 30.3333H2.6665C2.11422 30.3333 1.6665 29.8856 1.6665 29.3333Z" fill="white"/>
</svg>
