<svg width="129" height="129" viewBox="0 0 129 129" fill="none" xmlns="http://www.w3.org/2000/svg">
<path fill-rule="evenodd" clip-rule="evenodd" d="M42.4394 36.8222C45.3059 36.1925 48.6796 35.9991 52.5 35.9991H76.5C80.3202 35.9991 83.694 36.1925 86.5608 36.8222C89.478 37.4631 92.1498 38.6158 94.2666 40.7326C96.3834 42.8494 97.536 45.521 98.1768 48.4385C98.8068 51.305 99 54.6785 99 58.4993V124.499C99 126.984 96.9852 128.999 94.5 128.999H34.5C32.0147 128.999 30 126.984 30 124.499V58.4993C30 54.6785 30.1934 51.305 30.8231 48.4385C31.4641 45.521 32.6167 42.8494 34.7335 40.7326C36.8503 38.6158 39.5219 37.4631 42.4394 36.8222ZM39.6135 50.3696C39.1951 52.2741 39 54.8735 39 58.4993V119.999H90V58.4993C90 54.8735 89.805 52.2741 89.3862 50.3696C88.9794 48.5159 88.4244 47.6183 87.9024 47.0966C87.381 46.5749 86.4834 46.0198 84.6294 45.6126C82.725 45.1942 80.1258 44.9991 76.5 44.9991H52.5C48.8744 44.9991 46.2751 45.1942 44.3705 45.6126C42.5168 46.0198 41.6192 46.5749 41.0975 47.0966C40.5758 47.6183 40.0207 48.5159 39.6135 50.3696Z" fill="#F04F24"/>
<path fill-rule="evenodd" clip-rule="evenodd" d="M54 64.4993C54 62.0141 56.0148 59.9993 58.5 59.9993H70.5C72.9852 59.9993 75 62.0141 75 64.4993C75 66.9845 72.9852 68.9993 70.5 68.9993H58.5C56.0148 68.9993 54 66.9845 54 64.4993ZM54 82.4993C54 80.0141 56.0148 77.9993 58.5 77.9993H70.5C72.9852 77.9993 75 80.0141 75 82.4993C75 84.9845 72.9852 86.9993 70.5 86.9993H58.5C56.0148 86.9993 54 84.9845 54 82.4993ZM54 100.499C54 98.0141 56.0148 95.9993 58.5 95.9993H70.5C72.9852 95.9993 75 98.0141 75 100.499C75 102.984 72.9852 104.999 70.5 104.999H58.5C56.0148 104.999 54 102.984 54 100.499Z" fill="#F04F24"/>
<path fill-rule="evenodd" clip-rule="evenodd" d="M75.8928 0.266638C77.5866 0.654238 79.398 1.44828 81.2298 2.38344L107.478 15.7855C110.536 17.347 113.135 18.6736 115.171 19.9966C117.342 21.4073 119.189 23.006 120.557 25.2671C121.922 27.5225 122.491 29.9079 122.753 32.4985C123 34.9391 123 37.8958 123 41.3946V124.499C123 126.984 120.985 128.999 118.5 128.999C116.015 128.999 114 126.984 114 124.499V41.6129C114 37.8376 113.995 35.339 113.799 33.4051C113.613 31.5705 113.285 30.6328 112.858 29.927C112.434 29.2269 111.772 28.521 110.267 27.5434C108.672 26.5067 106.497 25.3901 103.187 23.6998L77.1372 10.3991C76.299 9.97122 75.6246 9.66204 75.0876 9.4437C75.033 10.0606 75 10.8559 75 11.8715V38.7201C75 41.2054 72.9852 43.2201 70.5 43.2201C68.0148 43.2201 66 41.2054 66 38.7201V11.8715C66 9.83544 66.105 7.8804 66.4956 6.2085C66.876 4.57938 67.7064 2.44746 69.7854 1.10196C71.9028 -0.268382 74.2134 -0.117482 75.8928 0.266638ZM73.6566 8.99796C73.6434 8.99754 73.6362 8.99652 73.6362 8.99652L73.6566 8.99796Z" fill="#F04F24"/>
<path fill-rule="evenodd" clip-rule="evenodd" d="M15.0499 69.0491C15.0202 69.3953 15 69.8645 15 70.4993V124.499C15 126.984 12.9853 128.999 10.5 128.999C8.01474 128.999 6 126.984 6 124.499V70.4993C6 69.1607 6.0639 67.7783 6.34422 66.5021C6.63576 65.1749 7.2192 63.6929 8.45652 62.4557C9.69384 61.2185 11.1757 60.6347 12.5028 60.3431C13.7789 60.0629 15.1616 59.9993 16.5 59.9993H34.5C36.9853 59.9993 39 62.0141 39 64.4993C39 66.9845 36.9853 68.9993 34.5 68.9993H16.5C15.8657 68.9993 15.3961 69.0191 15.0499 69.0491Z" fill="#F04F24"/>
<path fill-rule="evenodd" clip-rule="evenodd" d="M0 124.499C0 122.014 2.01474 119.999 4.5 119.999H124.5C126.985 119.999 129 122.014 129 124.499C129 126.984 126.985 128.999 124.5 128.999H4.5C2.01474 128.999 0 126.984 0 124.499Z" fill="#F04F24"/>
</svg>
