<svg width="45" height="40" viewBox="0 0 45 40" fill="none" xmlns="http://www.w3.org/2000/svg">
<path d="M44.6154 13.8462V7.69231C44.6154 5.99308 43.2377 4.61538 41.5385 4.61538H21.1323C19.9669 4.61538 18.9015 3.95692 18.38 2.91461L17.7731 1.70077C17.2515 0.658461 16.1862 0 15.0208 0H3.07692C1.37769 0 0 1.37769 0 3.07692V18.4615H43.8461L44.6154 13.8462Z" fill="#F04F24"/>
<path d="M40.7693 17.6925V9.23097C40.7693 8.38097 40.0808 7.6925 39.2308 7.6925H5.38465C4.53465 7.6925 3.84619 8.38097 3.84619 9.23097V17.6925H40.7693Z" fill="#EFEAE8"/>
<path d="M44.6154 13.8462V36.9231C44.6154 38.6224 43.2377 40.0001 41.5385 40.0001H3.07692C1.37769 40.0001 0 38.6224 0 36.9231V18.4616C0 16.7624 1.37769 15.3847 3.07692 15.3847H23.4831C24.6485 15.3847 25.7138 14.7262 26.2354 13.6839L26.8423 12.4701C27.3638 11.4277 28.4292 10.7693 29.5946 10.7693H41.5392C43.2385 10.7693 44.6154 12.147 44.6154 13.8462Z" fill="#FFBBA8"/>
</svg>
