<svg width="144" height="144" viewBox="0 0 144 144" fill="none" xmlns="http://www.w3.org/2000/svg">
<path d="M53.998 132H89.998C119.998 132 131.998 120 131.998 90V54.0001C131.998 24.0001 119.998 12.0001 89.998 12.0001H53.998C23.998 12.0001 11.998 24.0001 11.998 54.0001V90C11.998 120 23.998 132 53.998 132Z" stroke="#F04F24" stroke-width="10" stroke-linecap="round" stroke-linejoin="round"/>
<path d="M54.002 60C60.6294 60 66.002 54.6274 66.002 48C66.002 41.3726 60.6294 36 54.002 36C47.3745 36 42.002 41.3726 42.002 48C42.002 54.6274 47.3745 60 54.002 60Z" fill="#F04F24"/>
<path d="M16.0234 113.7L45.6034 93.8399C50.3434 90.6599 57.1834 91.0199 61.4434 94.6799L63.4234 96.4199C68.1034 100.44 75.6635 100.44 80.3435 96.4199L105.303 74.9999C109.983 70.9799 117.543 70.9799 122.223 74.9999L132.003 83.3999" stroke="#F04F24" stroke-width="10" stroke-linecap="round" stroke-linejoin="round"/>
</svg>
