<svg width="22" height="22" viewBox="0 0 22 22" fill="none" xmlns="http://www.w3.org/2000/svg">
<path d="M6.41683 9.85421H4.5835C2.36516 9.85421 1.146 8.63504 1.146 6.41671V4.58337C1.146 2.36504 2.36516 1.14587 4.5835 1.14587H6.41683C8.63516 1.14587 9.85433 2.36504 9.85433 4.58337V6.41671C9.85433 8.63504 8.63516 9.85421 6.41683 9.85421ZM4.5835 2.52087C3.13516 2.52087 2.521 3.13504 2.521 4.58337V6.41671C2.521 7.86504 3.13516 8.47921 4.5835 8.47921H6.41683C7.86516 8.47921 8.47933 7.86504 8.47933 6.41671V4.58337C8.47933 3.13504 7.86516 2.52087 6.41683 2.52087H4.5835Z" fill="#6B6B6B"/>
<path d="M17.4168 9.85421H15.5835C13.3652 9.85421 12.146 8.63504 12.146 6.41671V4.58337C12.146 2.36504 13.3652 1.14587 15.5835 1.14587H17.4168C19.6352 1.14587 20.8543 2.36504 20.8543 4.58337V6.41671C20.8543 8.63504 19.6352 9.85421 17.4168 9.85421ZM15.5835 2.52087C14.1352 2.52087 13.521 3.13504 13.521 4.58337V6.41671C13.521 7.86504 14.1352 8.47921 15.5835 8.47921H17.4168C18.8652 8.47921 19.4793 7.86504 19.4793 6.41671V4.58337C19.4793 3.13504 18.8652 2.52087 17.4168 2.52087H15.5835Z" fill="#6B6B6B"/>
<path d="M17.4168 20.8542H15.5835C13.3652 20.8542 12.146 19.635 12.146 17.4167V15.5834C12.146 13.365 13.3652 12.1459 15.5835 12.1459H17.4168C19.6352 12.1459 20.8543 13.365 20.8543 15.5834V17.4167C20.8543 19.635 19.6352 20.8542 17.4168 20.8542ZM15.5835 13.5209C14.1352 13.5209 13.521 14.135 13.521 15.5834V17.4167C13.521 18.865 14.1352 19.4792 15.5835 19.4792H17.4168C18.8652 19.4792 19.4793 18.865 19.4793 17.4167V15.5834C19.4793 14.135 18.8652 13.5209 17.4168 13.5209H15.5835Z" fill="#6B6B6B"/>
<path d="M6.41683 20.8542H4.5835C2.36516 20.8542 1.146 19.635 1.146 17.4167V15.5834C1.146 13.365 2.36516 12.1459 4.5835 12.1459H6.41683C8.63516 12.1459 9.85433 13.365 9.85433 15.5834V17.4167C9.85433 19.635 8.63516 20.8542 6.41683 20.8542ZM4.5835 13.5209C3.13516 13.5209 2.521 14.135 2.521 15.5834V17.4167C2.521 18.865 3.13516 19.4792 4.5835 19.4792H6.41683C7.86516 19.4792 8.47933 18.865 8.47933 17.4167V15.5834C8.47933 14.135 7.86516 13.5209 6.41683 13.5209H4.5835Z" fill="#6B6B6B"/>
</svg>
