<svg width="22" height="22" viewBox="0 0 22 22" fill="none" xmlns="http://www.w3.org/2000/svg">
<path d="M6.41683 9.85418H4.5835C2.36516 9.85418 1.146 8.63501 1.146 6.41668V4.58334C1.146 2.36501 2.36516 1.14584 4.5835 1.14584H6.41683C8.63516 1.14584 9.85433 2.36501 9.85433 4.58334V6.41668C9.85433 8.63501 8.63516 9.85418 6.41683 9.85418ZM4.5835 2.52084C3.13516 2.52084 2.521 3.13501 2.521 4.58334V6.41668C2.521 7.86501 3.13516 8.47918 4.5835 8.47918H6.41683C7.86516 8.47918 8.47933 7.86501 8.47933 6.41668V4.58334C8.47933 3.13501 7.86516 2.52084 6.41683 2.52084H4.5835Z" fill="white"/>
<path d="M17.4168 9.85418H15.5835C13.3652 9.85418 12.146 8.63501 12.146 6.41668V4.58334C12.146 2.36501 13.3652 1.14584 15.5835 1.14584H17.4168C19.6352 1.14584 20.8543 2.36501 20.8543 4.58334V6.41668C20.8543 8.63501 19.6352 9.85418 17.4168 9.85418ZM15.5835 2.52084C14.1352 2.52084 13.521 3.13501 13.521 4.58334V6.41668C13.521 7.86501 14.1352 8.47918 15.5835 8.47918H17.4168C18.8652 8.47918 19.4793 7.86501 19.4793 6.41668V4.58334C19.4793 3.13501 18.8652 2.52084 17.4168 2.52084H15.5835Z" fill="white"/>
<path d="M17.4168 20.8542H15.5835C13.3652 20.8542 12.146 19.635 12.146 17.4167V15.5833C12.146 13.365 13.3652 12.1458 15.5835 12.1458H17.4168C19.6352 12.1458 20.8543 13.365 20.8543 15.5833V17.4167C20.8543 19.635 19.6352 20.8542 17.4168 20.8542ZM15.5835 13.5208C14.1352 13.5208 13.521 14.135 13.521 15.5833V17.4167C13.521 18.865 14.1352 19.4792 15.5835 19.4792H17.4168C18.8652 19.4792 19.4793 18.865 19.4793 17.4167V15.5833C19.4793 14.135 18.8652 13.5208 17.4168 13.5208H15.5835Z" fill="white"/>
<path d="M6.41683 20.8542H4.5835C2.36516 20.8542 1.146 19.635 1.146 17.4167V15.5833C1.146 13.365 2.36516 12.1458 4.5835 12.1458H6.41683C8.63516 12.1458 9.85433 13.365 9.85433 15.5833V17.4167C9.85433 19.635 8.63516 20.8542 6.41683 20.8542ZM4.5835 13.5208C3.13516 13.5208 2.521 14.135 2.521 15.5833V17.4167C2.521 18.865 3.13516 19.4792 4.5835 19.4792H6.41683C7.86516 19.4792 8.47933 18.865 8.47933 17.4167V15.5833C8.47933 14.135 7.86516 13.5208 6.41683 13.5208H4.5835Z" fill="white"/>
</svg>
