<svg width="20" height="20" viewBox="0 0 20 20" fill="none" xmlns="http://www.w3.org/2000/svg">
<path d="M9.57264 5.25894L8.26199 2.62875C8.16658 2.43864 8.01989 2.27902 7.83851 2.16791C7.65713 2.05681 7.44828 1.99865 7.23558 2.00002H1.61283C1.30982 2.00035 1.01933 2.12087 0.805071 2.33512C0.590815 2.54938 0.470302 2.83988 0.469971 3.14288V5.42859C0.469942 5.47862 0.479776 5.52817 0.49891 5.57441C0.518044 5.62064 0.546104 5.66265 0.581484 5.69803C0.616865 5.73341 0.658872 5.76147 0.705104 5.7806C0.751337 5.79974 0.800887 5.80957 0.850922 5.80954H9.23186C9.29672 5.80954 9.36051 5.79297 9.41717 5.76141C9.47383 5.72984 9.52149 5.68432 9.55562 5.62917C9.58976 5.57402 9.60924 5.51106 9.61222 5.44627C9.61519 5.38147 9.60157 5.31699 9.57264 5.25894Z" fill="#B0B0B0"/>
<path d="M18.3747 5.04761H0.469971V16.8571C0.469971 17.1602 0.590378 17.4509 0.804705 17.6652C1.01903 17.8796 1.30972 18 1.61283 18H18.3747C18.6778 18 18.9685 17.8796 19.1828 17.6652C19.3971 17.4509 19.5176 17.1602 19.5176 16.8571V6.19046C19.5176 5.88736 19.3971 5.59667 19.1828 5.38234C18.9685 5.16801 18.6778 5.04761 18.3747 5.04761Z" fill="#B0B0B0"/>
</svg>
