<svg width="243" height="80" viewBox="0 0 243 80" fill="none" xmlns="http://www.w3.org/2000/svg">
<g clip-path="url(#clip0_21_20)">
<path d="M168.183 28.708C169.284 37.2991 162.759 44.9194 154.156 45.1203C145.557 45.3211 138.664 37.9976 139.396 29.3937C140.121 20.8631 148.134 14.7214 156.66 16.4249C155.515 7.7958 162.094 0.240884 170.597 0.005798C179.181 -0.231924 186.104 7.03045 185.437 15.6159C184.778 24.0964 176.913 30.3868 168.183 28.7085L168.183 28.708Z" fill="white"/>
<path d="M219.052 73.0944L207.092 73.0913V58.6877C207.063 57.8175 206.979 57.05 206.76 56.252C206.448 55.4224 205.812 54.8199 204.9 54.7751C203.434 54.7023 202.272 54.6375 201.646 56.183C201.426 56.9726 201.333 57.7263 201.305 58.5871L201.304 73.095L189.343 73.0928V38.8809L201.306 38.8709L201.173 48.4446L201.006 50.6147C202.89 47.3145 205.669 45.2056 209.592 45.3042C210.814 45.3347 211.974 45.3832 213.144 45.7026C216.663 46.6646 218.107 49.5241 218.725 52.8928C218.915 54.2032 219.015 55.4255 219.054 56.7707L219.053 73.0934L219.052 73.0944Z" fill="white"/>
<path d="M159.941 71.7361C163.656 72.735 167.408 72.9785 171.183 72.678C172.189 72.5284 173.111 72.3592 174.009 71.9496C176.048 71.0198 176.603 69.0136 176.486 66.881C174.396 69.4928 170.895 70.3667 167.649 70.3467C166.209 70.3377 164.854 70.237 163.489 69.8212C159.735 68.6774 158.109 65.4404 157.703 61.7434C157.473 59.6492 157.455 57.5777 157.684 55.4814C157.897 53.5364 158.473 51.709 159.402 50.0528C161.154 46.9324 164.242 45.3405 167.749 45.243C171.365 45.1429 174.528 46.9914 175.898 50.4429L176.435 45.6257L187.658 45.6268L187.634 66.3449C187.631 68.4433 187.299 70.4026 186.654 72.3323C184.862 77.6881 180.042 79.4323 174.856 79.874C171.826 80.0712 168.869 80.0274 165.825 79.8039L159.33 78.9906L159.941 71.7361H159.941ZM178.618 54.7519H164.336V63.487H178.618V54.7519Z" fill="white"/>
<path d="M57.672 72.1746C56.2118 71.1283 55.1923 69.7753 54.4504 68.1549L54.5883 71.3276L54.5841 79.1039L42.6451 79.1028L42.644 45.6763L53.828 45.6636L54.4288 50.1139C56.0991 46.9766 59.1469 45.214 62.6334 45.3057C63.8403 45.3373 64.965 45.3542 66.1314 45.6636C70.335 46.7784 72.1254 50.5867 72.6541 54.6211C72.9995 57.2593 73.0453 59.8732 72.7626 62.5208C72.127 68.4765 68.6152 73.5466 62.122 73.4302C60.5023 73.4012 59.069 73.1756 57.672 72.1746ZM62.8013 51.8929H54.0439V66.2516H62.8013V51.8929Z" fill="white"/>
<path d="M103.847 66.3248C102.072 70.9496 97.8898 73.0749 93.1469 73.525C90.7484 73.7527 88.3888 73.7385 85.9939 73.5113C80.8888 73.0264 76.4566 70.7467 74.7721 65.6354C74.0996 63.5955 73.9427 61.5403 73.9401 59.3814C73.9375 57.205 74.0844 55.134 74.7305 53.073C76.3855 47.7941 80.9025 45.4649 86.1456 45.0706C88.294 44.9093 90.4008 44.9093 92.5556 45.0922C97.489 45.5113 102.032 47.5248 103.876 52.4094C104.422 53.8563 104.73 55.3216 104.835 56.8766C105.048 60.0186 104.98 63.3725 103.847 66.3259V66.3248ZM93.9731 51.9213H85.2235V66.2674H93.9731V51.9213Z" fill="white"/>
<path d="M31.8473 73.3168C27.0344 73.6068 20.5791 73.3812 15.9037 72.2368L16.3392 64.5723C20.1605 65.1394 23.985 65.2865 27.859 65.093C28.5546 65.015 29.1876 64.907 29.8126 64.723C30.3339 64.4779 30.524 64.0858 30.5009 63.5228C30.4787 62.9915 30.226 62.5529 29.6531 62.4328C29.1981 62.3374 28.6626 62.2314 28.1713 62.2251L23.6175 62.1655C20.1073 62.1197 16.4887 60.8826 15.9453 56.9251C15.7599 55.5752 15.7541 54.2142 15.891 52.8485C16.1127 50.6331 17.3307 48.764 19.1674 47.5454C21.9735 45.6831 25.7554 45.2857 29.0738 45.3073C31.0717 45.2878 32.9679 45.3579 34.9473 45.584C37.022 45.8565 38.9792 46.2735 41.005 46.9645L40.0435 54.5484C36.973 53.8157 33.8725 53.6086 30.6978 53.695C29.8068 53.7124 28.967 53.7815 28.1334 53.9544C27.5499 54.1462 27.2603 54.5321 27.2361 55.1319C27.214 55.6833 27.442 56.1408 28.0349 56.3047C28.7347 56.4982 29.5167 56.6167 30.2823 56.6278L34.1311 56.6826C37.3332 56.7285 40.7059 57.7284 41.2656 61.3628C41.5237 63.0384 41.521 64.7552 41.3057 66.4498C40.6943 71.2591 36.2284 73.0522 31.8468 73.3163L31.8473 73.3168Z" fill="white"/>
<path d="M123.999 73.2183C121.399 73.5588 118.888 73.6563 116.329 73.407C113.097 73.0918 110.194 71.6017 109.207 68.321C108.918 67.3596 108.735 66.3802 108.733 65.3471L108.721 55.9268L105.52 55.9068L105.519 48.7445C108.928 47.8137 110.955 46.5502 112.868 43.4994L114.666 40.1918L120.339 40.1929V48.7293L128.193 48.7356V55.9131L120.681 55.9184L120.686 63.4606C120.75 64.4821 121.374 65.17 122.381 65.3835C124.28 65.6333 126.203 65.5421 128.113 65.1431L127.892 72.1825C126.609 72.7107 125.387 72.9832 124 73.2193L123.999 73.2183Z" fill="white"/>
<path d="M240.397 72.8757C238.096 73.4012 235.865 73.5109 233.549 73.4966C231.731 73.485 230.007 73.3406 228.321 72.7097C226.257 71.9375 224.715 70.3757 224.102 68.2436C223.832 67.3064 223.649 66.3513 223.648 65.3461L223.64 55.9221L220.452 55.9015V48.734C223.932 47.8406 226.036 46.3737 227.839 43.3576L229.552 40.2093L235.17 40.2193L235.171 48.7446L243 48.7514L242.998 55.9052L235.526 55.9126L235.528 63.419C235.58 64.488 236.246 65.1848 237.291 65.373C239.159 65.6044 241.033 65.5142 242.906 65.1247L242.695 72.1193C241.974 72.4593 241.237 72.6707 240.397 72.8762V72.8757Z" fill="white"/>
<path d="M141.693 38.9379H129.745V73.086H141.693V38.9379Z" fill="white"/>
<path d="M155.953 45.6784H143.992V73.0828H155.953V45.6784Z" fill="white"/>
<path d="M7.84981 55.4661C7.25952 55.8688 6.58024 55.852 5.93255 55.8883C4.485 55.97 3.27019 55.2532 2.68938 53.9101C1.75787 51.7554 1.97587 47.7505 2.78785 45.5098L5.8741 45.9009C5.56763 47.4943 5.43283 49.0455 5.61766 50.6827C5.64557 50.9304 5.90306 51.1603 6.0842 51.1792C7.22529 51.2999 6.41753 48.676 7.02203 46.8201C7.54545 45.2135 9.30263 45.2141 10.7175 45.3706C13.3488 45.6616 13.6585 48.4821 13.6532 50.5789C13.649 52.3626 13.5784 54.0556 13.1719 55.842L10.034 55.6633C10.2384 53.8522 10.3695 52.1607 10.1657 50.3986C10.1283 50.076 9.88133 49.8341 9.6191 49.8299C9.3437 49.8251 9.09463 50.0634 9.08252 50.3923L8.97405 53.3045C8.94245 54.1547 8.56121 54.9823 7.84981 55.4672V55.4661Z" fill="white"/>
<path d="M10.8358 66.2606L6.49001 66.3149L6.44578 67.6348L3.51012 67.6358C3.2084 66.3318 2.49331 65.2391 1.32221 64.5934L-0.000549316 63.8639L0.0073493 61.5194L3.50433 61.512L3.50591 58.2851L6.45526 58.2724L6.48264 61.3807L9.55362 61.3781C10.8132 61.377 10.3698 59.2259 10.2919 58.3278L13.1923 58.4121C13.7599 60.1932 13.8915 62.0475 13.5424 63.8718C13.2881 65.1975 12.2355 66.2443 10.8348 66.2617L10.8358 66.2606Z" fill="white"/>
<path d="M13.4777 68.252H0.00793457V73.4687H13.4777V68.252Z" fill="white"/>
<path d="M5.78864 57.6077L0.0110581 57.8164L0 56.1039L5.79759 56.4818L5.78864 57.6077Z" fill="white"/>
</g>
<defs>
<clipPath id="clip0_21_20">
<rect width="243" height="80" fill="white"/>
</clipPath>
</defs>
</svg>
