<svg width="144" height="144" viewBox="0 0 144 144" fill="none" xmlns="http://www.w3.org/2000/svg">
<path d="M123.165 11.925H20.835C16.5063 11.9369 12.3584 13.6617 9.29753 16.7225C6.23669 19.7834 4.51188 23.9313 4.5 28.26V93.6C4.51188 97.9286 6.23669 102.077 9.29753 105.137C12.3584 108.198 16.5063 109.923 20.835 109.935H67.5V118.395H54C52.8065 118.395 51.6619 118.869 50.818 119.713C49.9741 120.557 49.5 121.702 49.5 122.895C49.5 124.088 49.9741 125.233 50.818 126.077C51.6619 126.921 52.8065 127.395 54 127.395L90 126.99C91.1935 126.99 92.3381 126.516 93.182 125.672C94.0259 124.828 94.5 123.683 94.5 122.49C94.5 121.297 94.0259 120.152 93.182 119.308C92.3381 118.464 91.1935 117.99 90 117.99H76.5V109.935H123.165C127.494 109.923 131.642 108.198 134.702 105.137C137.763 102.077 139.488 97.9286 139.5 93.6V28.26C139.488 23.9313 137.763 19.7834 134.702 16.7225C131.642 13.6617 127.494 11.9369 123.165 11.925ZM130.5 93.6C130.5 95.5453 129.727 97.411 128.352 98.7866C126.976 100.162 125.11 100.935 123.165 100.935H20.835C18.8896 100.935 17.024 100.162 15.6484 98.7866C14.2728 97.411 13.5 95.5453 13.5 93.6V28.26C13.5 26.3146 14.2728 24.4489 15.6484 23.0734C17.024 21.6978 18.8896 20.925 20.835 20.925H123.165C125.11 20.925 126.976 21.6978 128.352 23.0734C129.727 24.4489 130.5 26.3146 130.5 28.26V93.6Z" fill="#F04F24"/>
</svg>
