<svg width="32" height="32" viewBox="0 0 32 32" fill="none" xmlns="http://www.w3.org/2000/svg">
<path d="M29.3333 20V12C29.3333 5.33335 26.6666 2.66669 20 2.66669H12C5.33329 2.66669 2.66663 5.33335 2.66663 12V20C2.66663 26.6667 5.33329 29.3334 12 29.3334H20C26.6666 29.3334 29.3333 26.6667 29.3333 20Z" stroke="#B0B0B0" stroke-width="2" stroke-linecap="round" stroke-linejoin="round"/>
<path d="M3.35999 9.47998H28.64" stroke="#B0B0B0" stroke-width="2" stroke-linecap="round" stroke-linejoin="round"/>
<path d="M11.36 2.81335V9.29335" stroke="#B0B0B0" stroke-width="2" stroke-linecap="round" stroke-linejoin="round"/>
<path d="M20.64 2.81335V8.69335" stroke="#B0B0B0" stroke-width="2" stroke-linecap="round" stroke-linejoin="round"/>
<path d="M12.3727 17.93V16.0561C12.3727 13.6513 14.0748 12.6675 16.1517 13.8699L17.7758 14.8068L19.3999 15.7438C21.4768 16.9462 21.4768 18.9138 19.3999 20.1163L17.7758 21.0532L16.1517 21.9902C14.0748 23.1926 12.3727 22.2088 12.3727 19.8039V17.93Z" fill="#B0B0B0"/>
</svg>
