<svg width="32" height="32" viewBox="0 0 32 32" fill="none" xmlns="http://www.w3.org/2000/svg">
<path d="M29.3333 12V20C29.3333 20.2934 29.3333 20.5867 29.3066 20.8667C28.2133 19.5201 26.5466 18.6667 24.6666 18.6667C23.2533 18.6667 21.9466 19.16 20.92 19.9867C19.5333 21.08 18.6666 22.7734 18.6666 24.6667C18.6666 26.5467 19.52 28.2133 20.8666 29.3067C20.5866 29.3333 20.2933 29.3334 20 29.3334H12C5.33329 29.3334 2.66663 26.6667 2.66663 20V12C2.66663 5.33335 5.33329 2.66669 12 2.66669H20C26.6666 2.66669 29.3333 5.33335 29.3333 12Z" stroke="#B0B0B0" stroke-width="2" stroke-linecap="round" stroke-linejoin="round"/>
<path d="M3.35999 9.47998H28.64" stroke="#B0B0B0" stroke-width="2" stroke-linecap="round" stroke-linejoin="round"/>
<path d="M11.36 2.81329V9.29327" stroke="#B0B0B0" stroke-width="2" stroke-linecap="round" stroke-linejoin="round"/>
<path d="M20.64 2.81329V8.69334" stroke="#B0B0B0" stroke-width="2" stroke-linecap="round" stroke-linejoin="round"/>
<path d="M30.6666 24.6667C30.6666 26.4667 29.8666 28.0667 28.6266 29.1734C27.56 30.0934 26.1866 30.6667 24.6666 30.6667C23.2266 30.6667 21.8933 30.16 20.8666 29.3067C19.52 28.2133 18.6666 26.5467 18.6666 24.6667C18.6666 22.7734 19.5333 21.08 20.92 19.9867C21.9466 19.16 23.2533 18.6667 24.6666 18.6667C26.5466 18.6667 28.2133 19.5201 29.3066 20.8667C30.16 21.8934 30.6666 23.2267 30.6666 24.6667Z" stroke="#B0B0B0" stroke-width="2" stroke-miterlimit="10" stroke-linecap="round" stroke-linejoin="round"/>
<path d="M24.1733 22.7867V25.0401L26.0399 26.16" stroke="#B0B0B0" stroke-width="2" stroke-miterlimit="10" stroke-linecap="round" stroke-linejoin="round"/>
</svg>
