<svg width="32" height="32" viewBox="0 0 32 32" fill="none" xmlns="http://www.w3.org/2000/svg">
<path fill-rule="evenodd" clip-rule="evenodd" d="M15.3333 27.0173H3.93329C3.86263 27.0173 3.79463 26.988 3.74529 26.9387C3.69463 26.888 3.66663 26.8213 3.66663 26.7507V24.816C3.66663 23.7093 4.45729 22.7333 5.67596 21.904C7.85196 20.4187 11.3733 19.4827 15.3333 19.4827C15.8853 19.4827 16.3333 19.0347 16.3333 18.4827C16.3333 17.932 15.8853 17.4827 15.3333 17.4827C10.904 17.4827 6.98263 18.5907 4.54796 20.2507C2.69063 21.5173 1.66663 23.1267 1.66663 24.816V26.7507C1.66663 27.3507 1.90529 27.928 2.33063 28.3533C2.75596 28.7773 3.33196 29.0173 3.93329 29.0173H15.3333C15.8853 29.016 16.3333 28.568 16.3333 28.016C16.3333 27.4653 15.8853 27.016 15.3333 27.0173Z" fill="#B0B0B0"/>
<path fill-rule="evenodd" clip-rule="evenodd" d="M15.3333 1.66663C11.2853 1.66663 8 4.95196 8 8.99996C8 13.048 11.2853 16.3333 15.3333 16.3333C19.3813 16.3333 22.6667 13.048 22.6667 8.99996C22.6667 4.95196 19.3813 1.66663 15.3333 1.66663ZM15.3333 3.66663C18.2773 3.66663 20.6667 6.05596 20.6667 8.99996C20.6667 11.944 18.2773 14.3333 15.3333 14.3333C12.3893 14.3333 10 11.944 10 8.99996C10 6.05596 12.3893 3.66663 15.3333 3.66663Z" fill="#B0B0B0"/>
<path fill-rule="evenodd" clip-rule="evenodd" d="M23.3333 18.584C20.712 18.584 18.584 20.712 18.584 23.3333C18.584 25.9547 20.712 28.084 23.3333 28.084C25.9547 28.084 28.084 25.9547 28.084 23.3333C28.084 20.712 25.9547 18.584 23.3333 18.584ZM23.3333 20.584C24.8507 20.584 26.084 21.816 26.084 23.3333C26.084 24.8507 24.8507 26.084 23.3333 26.084C21.816 26.084 20.5827 24.8507 20.5827 23.3333C20.5827 21.816 21.816 20.584 23.3333 20.584Z" fill="#B0B0B0"/>
<path fill-rule="evenodd" clip-rule="evenodd" d="M24.3333 19.5826V17.3333C24.3333 16.7813 23.8853 16.3333 23.3333 16.3333C22.7813 16.3333 22.3333 16.7813 22.3333 17.3333V19.5839C22.3333 20.1346 22.7813 20.5839 23.3333 20.5839C23.8853 20.5826 24.3333 20.1346 24.3333 19.5826Z" fill="#B0B0B0"/>
<path fill-rule="evenodd" clip-rule="evenodd" d="M26.692 21.3893L28.2827 19.7973C28.6734 19.4079 28.6734 18.7733 28.2827 18.3839C27.8934 17.9933 27.2587 17.9933 26.8694 18.3839L25.2774 19.9746C24.888 20.3653 24.888 20.9986 25.2774 21.3893C25.668 21.7786 26.3014 21.7786 26.692 21.3893Z" fill="#B0B0B0"/>
<path fill-rule="evenodd" clip-rule="evenodd" d="M27.0827 24.3333H29.3333C29.8853 24.3333 30.3333 23.8853 30.3333 23.3333C30.3333 22.7813 29.8853 22.3333 29.3333 22.3333H27.0827C26.532 22.3333 26.084 22.7813 26.084 23.3333C26.0827 23.8853 26.532 24.3333 27.0827 24.3333Z" fill="#B0B0B0"/>
<path fill-rule="evenodd" clip-rule="evenodd" d="M25.2774 26.692L26.8694 28.2827C27.2587 28.6734 27.8934 28.6734 28.2827 28.2827C28.6734 27.8934 28.6734 27.2587 28.2827 26.8694L26.692 25.2774C26.3014 24.888 25.668 24.888 25.2774 25.2774C24.888 25.668 24.888 26.3014 25.2774 26.692Z" fill="#B0B0B0"/>
<path fill-rule="evenodd" clip-rule="evenodd" d="M22.3333 27.0826V29.3333C22.3333 29.8853 22.7813 30.3333 23.3333 30.3333C23.8853 30.3333 24.3333 29.8853 24.3333 29.3333V27.0826C24.3333 26.532 23.8853 26.084 23.3333 26.0826C22.7813 26.0826 22.3333 26.532 22.3333 27.0826Z" fill="#B0B0B0"/>
<path fill-rule="evenodd" clip-rule="evenodd" d="M19.9746 25.2774L18.3839 26.8694C17.9933 27.2587 17.9933 27.8934 18.3839 28.2827C18.7733 28.6734 19.4079 28.6734 19.7973 28.2827L21.3893 26.692C21.7786 26.3014 21.7786 25.668 21.3893 25.2774C20.9986 24.888 20.3653 24.888 19.9746 25.2774Z" fill="#B0B0B0"/>
<path fill-rule="evenodd" clip-rule="evenodd" d="M19.5826 22.3333H17.3333C16.7813 22.3333 16.3333 22.7813 16.3333 23.3333C16.3333 23.8853 16.7813 24.3333 17.3333 24.3333H19.5826C20.1346 24.3333 20.5839 23.8853 20.5826 23.3333C20.5826 22.7813 20.1346 22.3333 19.5826 22.3333Z" fill="#B0B0B0"/>
<path fill-rule="evenodd" clip-rule="evenodd" d="M21.3893 19.9746L19.7973 18.3839C19.4079 17.9933 18.7733 17.9933 18.3839 18.3839C17.9933 18.7733 17.9933 19.4079 18.3839 19.7973L19.9746 21.3893C20.3653 21.7786 20.9986 21.7786 21.3893 21.3893C21.7786 20.9986 21.7786 20.3653 21.3893 19.9746Z" fill="#B0B0B0"/>
</svg>
