<svg width="20" height="20" viewBox="0 0 20 20" fill="none" xmlns="http://www.w3.org/2000/svg">
<g clip-path="url(#clip0_558_2596)">
<path d="M8.67446 16.3219C7.35108 17.6942 5.19591 17.8208 3.72103 16.6128C2.84266 15.8523 2.39398 14.7088 2.5208 13.5539C2.63063 12.7024 3.02859 11.9142 3.64852 11.3202L6.04564 8.92141C6.5337 8.4332 6.5337 7.6418 6.04564 7.15358C5.55743 6.66552 4.76603 6.66552 4.27781 7.15358L1.93155 9.5007C0.862056 10.532 0.187593 11.9054 0.0253363 13.3822C-0.277728 16.7085 2.17308 19.6508 5.49941 19.9538C7.28572 20.1166 9.05215 19.478 10.3214 18.2106L12.8286 15.7043C13.3166 15.2161 13.3166 14.4247 12.8286 13.9365C12.3403 13.4484 11.5489 13.4484 11.0607 13.9365L8.67446 16.3219Z" fill="white"/>
<path d="M17.6345 1.22243C15.1455 -0.606277 11.6892 -0.319582 9.53548 1.89423L7.17586 4.25467C6.6878 4.74289 6.6878 5.53429 7.17586 6.02251C7.66408 6.51057 8.45547 6.51057 8.94369 6.02251L11.3408 3.62788C12.6353 2.28907 14.7297 2.13826 16.2026 3.27781C17.7186 4.52094 17.9398 6.75764 16.6967 8.27367C16.624 8.3624 16.547 8.44753 16.4659 8.5288L13.9588 11.0359C13.4707 11.5242 13.4707 12.3156 13.9588 12.8038C14.447 13.2918 15.2384 13.2918 15.7266 12.8038L18.2338 10.2966C20.5941 7.92876 20.588 4.09582 18.2201 1.73549C18.0361 1.5521 17.8405 1.38074 17.6345 1.22243Z" fill="white"/>
</g>
<defs>
<clipPath id="clip0_558_2596">
<rect width="20" height="20" fill="white"/>
</clipPath>
</defs>
</svg>
