<svg width="16" height="16" viewBox="0 0 16 16" fill="none" xmlns="http://www.w3.org/2000/svg">
<g clip-path="url(#clip0_168_497)">
<mask id="mask0_168_497" style="mask-type:luminance" maskUnits="userSpaceOnUse" x="0" y="0" width="16" height="16">
<path d="M16 0H0V16H16V0Z" fill="white"/>
</mask>
<g mask="url(#mask0_168_497)">
<path fill-rule="evenodd" clip-rule="evenodd" d="M8 0C7.44772 0 7 0.447715 7 1V4C7 4.55228 7.44772 5 8 5C8.55228 5 9 4.55228 9 4V1C9 0.447715 8.55228 0 8 0Z" fill="#F04F24"/>
<path opacity="0.4" fill-rule="evenodd" clip-rule="evenodd" d="M8 11C7.44772 11 7 11.4477 7 12V15C7 15.5523 7.44772 16 8 16C8.55228 16 9 15.5523 9 15V12C9 11.4477 8.55228 11 8 11Z" fill="#F04F24"/>
<path opacity="0.2" fill-rule="evenodd" clip-rule="evenodd" d="M0 8C0 8.55228 0.4477 9 1 9H4C4.5523 9 5 8.55228 5 8C5 7.44772 4.5523 7 4 7H1C0.4477 7 0 7.44772 0 8Z" fill="#F04F24"/>
<path opacity="0.6" fill-rule="evenodd" clip-rule="evenodd" d="M11 8C11 8.55228 11.4477 9 12 9H15C15.5523 9 16 8.55228 16 8C16 7.44772 15.5523 7 15 7H12C11.4477 7 11 7.44772 11 8Z" fill="#F04F24"/>
<path opacity="0.3" fill-rule="evenodd" clip-rule="evenodd" d="M2.34297 13.6568C2.73347 14.0474 3.36667 14.0474 3.75717 13.6568L5.87847 11.5355C6.26902 11.145 6.26902 10.5118 5.87847 10.1213C5.48797 9.73074 4.85477 9.73074 4.46427 10.1213L2.34297 12.2426C1.95247 12.6332 1.95247 13.2663 2.34297 13.6568Z" fill="#F04F24"/>
<path opacity="0.7" fill-rule="evenodd" clip-rule="evenodd" d="M10.1213 5.87872C10.5118 6.26924 11.145 6.26924 11.5355 5.87872L13.6568 3.7574C14.0473 3.36687 14.0473 2.73371 13.6568 2.34318C13.2663 1.95266 12.6331 1.95266 12.2426 2.34318L10.1213 4.4645C9.73076 4.85503 9.73076 5.48819 10.1213 5.87872Z" fill="#F04F24"/>
<path opacity="0.5" fill-rule="evenodd" clip-rule="evenodd" d="M13.7071 13.6065C14.0976 13.216 14.0976 12.5828 13.7071 12.1923L11.5858 10.071C11.1953 9.68044 10.5621 9.68044 10.1716 10.071C9.78105 10.4615 9.78105 11.0947 10.1716 11.4852L12.2929 13.6065C12.6834 13.997 13.3166 13.997 13.7071 13.6065Z" fill="#F04F24"/>
<path opacity="0.1" fill-rule="evenodd" clip-rule="evenodd" d="M5.92876 5.82843C6.31931 5.4379 6.31932 4.80474 5.92876 4.41421L3.80746 2.29289C3.41696 1.90237 2.78376 1.90237 2.39326 2.29289C2.00276 2.68342 2.00276 3.31658 2.39326 3.70711L4.51456 5.82843C4.90506 6.21895 5.53826 6.21895 5.92876 5.82843Z" fill="#F04F24"/>
</g>
</g>
<defs>
<clipPath id="clip0_168_497">
<rect width="16" height="16" fill="white" transform="matrix(-1 0 0 1 16 0)"/>
</clipPath>
</defs>
</svg>
